<svg width="160" height="63" viewBox="0 0 160 63" fill="none" xmlns="http://www.w3.org/2000/svg">
<path d="M38.5092 62.1393C37.4528 62.1393 36.4761 61.8005 35.5791 61.1228C34.6024 60.3255 33.835 59.2591 33.2769 57.9237C32.7388 56.5882 32.3601 55.1431 32.1408 53.5884C31.9215 52.0337 31.8119 50.5587 31.8119 49.1634C31.8119 48.1867 31.8518 47.2998 31.9315 46.5025C32.4896 40.9414 33.8251 35.0115 35.9379 28.7129L36.3864 27.4572C36.6455 26.7197 36.8249 26.2114 36.9246 25.9323C37.0242 25.6533 37.074 25.4839 37.074 25.4241V25.3942C36.9345 25.4938 33.7653 29.281 27.5663 36.7556C16.8826 49.6916 10.1057 57.2559 7.23542 59.4485C5.42158 60.8238 3.97649 61.5115 2.90015 61.5115C2.20252 61.5115 1.63445 61.2822 1.19594 60.8238C0.777359 60.3654 0.468409 59.7574 0.269086 59C0.0896953 58.2226 0 57.3755 0 56.4586C0 55.3823 0.109628 54.276 0.328883 53.1399C1.86367 45.4062 5.75046 36.2772 11.9893 25.753C16.8926 17.5608 20.6897 12.1791 23.3806 9.60781C23.8191 9.14936 24.2078 8.92014 24.5466 8.92014C24.6662 8.92014 24.7858 8.94008 24.9054 8.97994C25.2442 9.09953 25.4137 9.33872 25.4137 9.6975C25.4137 10.0961 25.1944 10.6742 24.7559 11.4316C22.962 14.541 20.0818 18.4079 16.1152 23.0322L13.9925 25.4839C13.7732 25.743 13.2749 26.5303 12.4975 27.8458C6.71718 37.812 3.12937 46.4626 1.73411 53.7977C1.53479 54.8142 1.43512 55.8308 1.43512 56.8473C1.43512 58.9003 1.96333 59.9269 3.01974 59.9269C3.91669 59.9269 5.15249 59.2691 6.72714 57.9536C8.3018 56.6181 10.594 54.2462 13.6038 50.8377C16.6335 47.4293 20.6897 42.6655 25.7724 36.5463C30.7954 30.5267 34.3035 26.341 36.2967 23.9889C38.3098 21.6369 39.4061 20.431 39.5855 20.3712C39.7649 20.2516 39.9343 20.1918 40.0938 20.1918C40.2732 20.1918 40.4227 20.2616 40.5423 20.4011C40.6818 20.5407 40.7515 20.6802 40.7515 20.8197C40.7515 20.9792 40.6718 21.1586 40.5124 21.3579C39.5157 22.8129 38.4992 25.1849 37.4627 28.4737C36.4462 31.7625 35.5592 35.1411 34.8018 38.6093C34.0443 42.0576 33.5759 44.7783 33.3965 46.7715C33.3168 47.6486 33.2769 48.4957 33.2769 49.3129C33.2769 51.9838 33.6158 54.3159 34.2935 56.3091C34.9712 58.2824 35.908 59.6179 37.1039 60.3155C37.5225 60.5348 37.961 60.6444 38.4195 60.6444C39.2367 60.6444 40.1137 60.3554 41.0505 59.7774C43.7613 58.0433 46.6216 54.874 49.6314 50.2697C52.6412 45.6454 55.5612 40.4331 58.3916 34.6328C61.222 28.8126 63.7235 23.2415 65.8961 17.9196C69.6833 8.59126 71.5768 3.02019 71.5768 1.20635V0.727976C71.5768 0.568518 71.5868 0.45889 71.6067 0.399093C71.6466 0.319364 71.7064 0.249601 71.7861 0.189804C71.9456 0.0702106 72.0951 0.0104137 72.2346 0.0104137C72.3741 0.0104137 72.5136 0.0702106 72.6532 0.189804C72.9322 0.428992 73.0717 0.827637 73.0717 1.38574C73.0717 3.00026 71.4572 7.88366 68.2282 16.036C64.0823 26.4606 59.6872 35.8686 55.043 44.2601C49.1829 54.7843 44.1101 60.6843 39.8247 61.9599C39.3862 62.0795 38.9477 62.1393 38.5092 62.1393ZM72.2645 38.6093L72.7728 37.802C73.5501 36.5861 73.9388 35.5098 73.9388 34.573C73.9388 34.3737 73.9089 34.1943 73.8491 34.0348C73.8092 33.8754 73.7594 33.7657 73.6996 33.7059C73.6398 33.6461 73.5601 33.6063 73.4604 33.5863C73.281 33.5863 73.0518 33.676 72.7728 33.8554C72.5136 34.0348 72.3043 34.264 72.1449 34.5431L71.9356 34.872C71.5768 35.3304 71.3974 35.8287 71.3974 36.3669C71.3974 37.1841 71.6864 37.9316 72.2645 38.6093ZM68.886 41.1207C69.1451 41.1207 69.474 41.0211 69.8726 40.8218C70.2713 40.6224 70.6898 40.3334 71.1283 39.9547L71.3077 39.7753L70.9191 39.3866C70.2613 38.6093 69.9324 37.6725 69.9324 36.5762C69.9324 36.1576 69.9822 35.7191 70.0819 35.2607H70.052C69.5138 35.7988 69.0355 36.5861 68.6169 37.6226C68.2581 38.5196 68.0787 39.3069 68.0787 39.9846C68.0787 40.742 68.3478 41.1207 68.886 41.1207ZM68.8561 42.6456C68.5969 42.6456 68.3478 42.5957 68.1086 42.4961C67.0921 42.0177 66.5838 41.1207 66.5838 39.8052C66.5838 38.7887 66.8429 37.7422 67.3611 36.6659C68.1186 35.1311 68.9856 34.1345 69.9623 33.676C70.2812 33.5365 70.5403 33.4667 70.7397 33.4667C70.939 33.4667 71.1682 33.3173 71.4273 33.0183C72.105 32.3804 72.7827 32.0615 73.4604 32.0615C73.8391 32.0615 74.178 32.1612 74.477 32.3605C75.0949 32.8588 75.4038 33.5863 75.4038 34.5431C75.4038 35.3005 75.2643 36.028 74.9852 36.7257C74.7261 37.4034 74.3275 38.1608 73.7893 38.998C74.6863 38.998 75.5932 38.7887 76.5101 38.3701C77.1678 38.0711 77.7957 37.6426 78.3937 37.0845L78.7225 36.7855C78.9019 36.626 79.0813 36.5463 79.2607 36.5463C79.4202 36.5463 79.5497 36.616 79.6494 36.7556C79.769 36.8752 79.8288 37.0047 79.8288 37.1443C79.8288 37.3635 79.7192 37.5927 79.4999 37.8319C78.5033 38.9282 77.3771 39.6757 76.1214 40.0743C75.1447 40.3733 74.2577 40.5228 73.4604 40.5228C73.1614 40.5228 72.8923 40.5028 72.6532 40.463L72.0851 41.031C71.3675 41.7087 70.6101 42.1871 69.8128 42.4662C69.454 42.5858 69.1351 42.6456 68.8561 42.6456ZM78.1246 41.7785C77.9452 41.7785 77.7957 41.7087 77.6761 41.5692C77.5366 41.4297 77.4668 41.2005 77.4668 40.8816C77.4668 40.6424 77.5166 40.3534 77.6163 40.0145C78.1345 38.5395 78.8421 36.626 79.7391 34.274C79.9783 33.696 80.1676 33.2874 80.3072 33.0482C80.4666 32.809 80.6161 32.6695 80.7556 32.6296L80.9051 32.5997C81.0447 32.5997 81.1742 32.6495 81.2938 32.7492C81.4134 32.8289 81.4832 32.9186 81.5031 33.0183C81.543 33.1179 81.5729 33.1977 81.5928 33.2575C81.5928 33.4568 81.3636 34.1145 80.9051 35.2308C80.7058 35.749 80.6061 36.038 80.6061 36.0978V36.1277L80.7855 36.0081C81.3636 35.5098 81.9017 35.2607 82.4 35.2607C82.7987 35.2607 83.1973 35.45 83.596 35.8287C83.6956 35.9284 83.7853 36.038 83.8651 36.1576C83.9448 36.2772 84.0345 36.4566 84.1342 36.6958C84.2538 36.915 84.4032 37.224 84.5826 37.6226C84.9414 38.3003 85.37 38.6392 85.8683 38.6392C86.3466 38.6392 86.835 38.4698 87.3333 38.1309C87.8316 37.7721 88.2801 37.4233 88.6787 37.0845C89.0774 36.7456 89.4162 36.5762 89.6953 36.5762C90.0142 36.5762 90.1836 36.7456 90.2035 37.0845C90.2035 37.2638 90.1238 37.4632 89.9643 37.6824C89.4062 38.3601 88.7485 38.9182 87.9911 39.3567C87.2536 39.7952 86.526 40.0145 85.8085 40.0145C84.5926 40.0145 83.6857 39.3368 83.0877 37.9814C82.8884 37.5429 82.7389 37.2439 82.6392 37.0845C82.5396 36.9051 82.4399 36.8154 82.3403 36.8154C82.2805 36.8154 82.2107 36.8353 82.131 36.8752C81.6925 37.1343 81.1642 37.6924 80.5463 38.5495C79.9484 39.3866 79.5099 40.164 79.2308 40.8816C79.1312 41.1606 78.9817 41.3799 78.7823 41.5393C78.5631 41.6988 78.3438 41.7785 78.1246 41.7785ZM90.1736 40.2836C90.373 40.2836 90.7915 39.8949 91.4294 39.1175C91.828 38.6192 92.2865 37.9515 92.8047 37.1144C93.602 35.8786 94.0006 35.2009 94.0006 35.0813C94.0006 35.0414 93.9608 35.0115 93.881 34.9916C93.8013 34.9517 93.6917 34.9118 93.5522 34.872C93.4326 34.8321 93.303 34.8122 93.1635 34.8122C92.1868 34.8122 91.3098 35.5497 90.5324 37.0247C90.1338 37.9615 89.9344 38.7787 89.9344 39.4763C89.9344 40.0145 90.0142 40.2836 90.1736 40.2836ZM92.4459 50.0604C92.2865 50.0604 92.127 50.0205 91.9675 49.9408C91.828 49.8411 91.7583 49.6617 91.7583 49.4026C91.7583 49.1435 91.838 48.6452 91.9974 47.9077L94.2697 37.7123C94.2498 37.7123 94.0405 37.9914 93.6419 38.5495C92.1669 40.742 90.951 41.8383 89.9942 41.8383C89.4959 41.8383 89.0873 41.5493 88.7684 40.9713C88.5691 40.5726 88.4694 40.0544 88.4694 39.4165C88.4694 38.8983 88.5292 38.3801 88.6488 37.8618C89.2069 35.9085 90.1736 34.5531 91.549 33.7956C92.0473 33.5564 92.5555 33.4368 93.0738 33.4368C93.4525 33.4368 93.8212 33.4966 94.18 33.6162L94.8079 33.7956L95.2265 33.0781C95.4856 32.6196 95.8942 31.4237 96.4523 29.4903C98.0668 23.8694 99.2329 20.3214 99.9504 18.8464C100.19 18.3282 100.439 18.0093 100.698 17.8897C100.877 17.8099 101.037 17.7701 101.176 17.7701C101.595 17.7701 101.824 18.1089 101.864 18.7866C101.844 19.5241 101.565 20.8895 101.027 22.8827C100.528 24.7165 99.9704 26.4406 99.3525 28.0551C98.8741 29.2311 98.2562 30.5367 97.4987 31.9718L96.9905 33.0183L96.1832 36.337C95.5852 38.7887 94.9474 41.5294 94.2697 44.5591C93.612 47.5888 93.2233 49.273 93.1037 49.6119C92.9243 49.9109 92.705 50.0604 92.4459 50.0604ZM102.671 41.8383C101.655 41.8383 100.768 41.5493 100.01 40.9713C99.2727 40.3733 98.7744 39.4863 98.5153 38.3103C98.4356 37.9316 98.3957 37.5329 98.3957 37.1144C98.3957 35.4799 98.8741 33.7757 99.8308 32.0017C100.788 30.2278 102.053 29.1414 103.628 28.7428L104.047 28.7129C104.545 28.7129 104.963 28.8823 105.302 29.2212C105.641 29.56 105.811 30.0085 105.811 30.5666C105.751 31.4038 105.442 32.2608 104.884 33.1379C104.385 33.8953 103.817 34.4933 103.179 34.9318C102.781 35.1909 102.452 35.3204 102.193 35.3204C101.954 35.3204 101.774 35.2507 101.655 35.1112C101.555 34.9716 101.505 34.8122 101.505 34.6328C101.505 34.2939 101.675 34.0846 102.013 34.0049C102.372 33.9053 102.781 33.5664 103.239 32.9884C103.698 32.3904 104.027 31.7924 104.226 31.1945C104.306 30.9553 104.345 30.756 104.345 30.5965C104.345 30.3374 104.236 30.2078 104.017 30.2078C103.837 30.2078 103.598 30.2875 103.299 30.447C102.382 30.9453 101.585 31.8323 100.907 33.108C100.249 34.3637 99.9106 35.6792 99.8906 37.0546C99.8906 38.2106 100.14 39.0478 100.638 39.566C101.136 40.0643 101.764 40.3135 102.522 40.3135C103.339 40.3135 104.236 40.0743 105.213 39.5959C105.95 39.2371 106.558 38.8983 107.036 38.5794C107.515 38.2405 107.973 37.8419 108.412 37.3834C108.631 37.1443 108.8 36.9649 108.92 36.8453C109.059 36.7257 109.169 36.6459 109.249 36.6061C109.348 36.5662 109.438 36.5463 109.518 36.5463C109.677 36.5463 109.827 36.616 109.966 36.7556C110.106 36.8752 110.176 37.0147 110.176 37.1742C110.176 37.7323 109.618 38.4498 108.501 39.3268C107.385 40.2039 106.129 40.9115 104.734 41.4496C104.017 41.7087 103.329 41.8383 102.671 41.8383ZM110.265 35.4699C110.325 35.4699 110.395 35.4201 110.475 35.3204C111.053 34.563 111.76 33.407 112.597 31.8522C113.455 30.2776 114.062 29.0019 114.421 28.0252C114.66 27.2877 114.78 26.6798 114.78 26.2014C114.78 26.0818 114.76 26.022 114.72 26.022C114.641 26.022 114.441 26.1416 114.122 26.3808C113.046 27.198 112.129 28.2844 111.372 29.6397C110.375 31.3739 109.877 32.8787 109.877 34.1544C109.877 34.5531 109.917 34.872 109.996 35.1112C110.096 35.3503 110.186 35.4699 110.265 35.4699ZM115.288 43.6023C114.252 43.6023 113.504 43.2136 113.046 42.4363C112.747 41.9579 112.498 41.4098 112.298 40.7919C112.039 39.8152 111.541 38.9581 110.804 38.2206C109.946 37.523 109.329 36.8652 108.95 36.2473C108.551 35.6095 108.352 34.9118 108.352 34.1544C108.352 33.7558 108.402 33.3272 108.501 32.8688C108.86 31.1945 109.558 29.58 110.594 28.0252C111.631 26.4705 112.737 25.3742 113.913 24.7364C114.292 24.5371 114.621 24.4374 114.9 24.4374C115.179 24.4374 115.418 24.5371 115.617 24.7364C115.836 24.9158 115.986 25.1151 116.066 25.3344C116.145 25.5337 116.185 25.8227 116.185 26.2014V26.6798C116.165 27.2778 116.036 27.9056 115.797 28.5634C114.641 31.5333 113.106 34.2242 111.192 36.636L111.641 36.9948C112.538 37.6725 113.126 38.5295 113.405 39.566C113.724 40.5427 114.023 41.2204 114.302 41.5991C114.581 41.9579 114.93 42.1373 115.348 42.1373C116.265 42.0576 117.272 41.5692 118.368 40.6723C119.464 39.7554 120.441 38.8485 121.298 37.9515L122.374 36.935C122.673 36.7157 122.922 36.6061 123.122 36.6061C123.261 36.6061 123.371 36.636 123.451 36.6958C123.61 36.8353 123.69 36.9848 123.69 37.1443C123.69 37.6824 122.653 38.9182 120.58 40.8517C118.607 42.6854 116.843 43.6023 115.288 43.6023ZM124.527 58.4917C124.467 58.4917 124.397 58.4718 124.318 58.4319C123.999 58.2924 123.839 58.0433 123.839 57.6845C123.839 57.5051 123.879 57.2958 123.959 57.0566C125.235 53.7478 126.66 49.8112 128.234 45.2467C129.869 40.5028 131.473 36.038 133.048 31.8522C137.094 21.0091 139.656 14.3318 140.732 11.8203C141.39 10.2456 141.818 9.38855 142.017 9.24903C142.237 9.1095 142.436 9.03974 142.615 9.03974C142.835 9.03974 143.014 9.1095 143.154 9.24903C143.313 9.36862 143.393 9.53804 143.393 9.7573C143.393 10.1759 142.875 11.9299 141.838 15.0194C140.822 18.089 139.695 21.318 138.46 24.7065C137.224 28.095 136.217 30.6762 135.44 32.4502C134.523 34.4634 133.686 35.9284 132.928 36.8453C132.849 36.925 132.699 37.224 132.48 37.7422C132.121 38.6192 131.125 41.4197 129.49 46.1437C128.673 48.5356 127.935 50.6284 127.278 52.4223C126.759 53.8176 126.371 54.894 126.112 55.6514C125.673 56.8473 125.394 57.5948 125.274 57.8938C125.135 58.1728 124.995 58.3422 124.856 58.402C124.696 58.4618 124.587 58.4917 124.527 58.4917ZM140.762 41.8383C139.745 41.8383 138.858 41.5493 138.101 40.9713C137.363 40.3733 136.865 39.4863 136.606 38.3103C136.526 37.9316 136.486 37.5329 136.486 37.1144C136.486 35.4799 136.965 33.7757 137.921 32.0017C138.878 30.2278 140.144 29.1414 141.719 28.7428L142.137 28.7129C142.635 28.7129 143.054 28.8823 143.393 29.2212C143.732 29.56 143.901 30.0085 143.901 30.5666C143.841 31.4038 143.532 32.2608 142.974 33.1379C142.476 33.8953 141.908 34.4933 141.27 34.9318C140.871 35.1909 140.543 35.3204 140.283 35.3204C140.044 35.3204 139.865 35.2507 139.745 35.1112C139.646 34.9716 139.596 34.8122 139.596 34.6328C139.596 34.2939 139.765 34.0846 140.104 34.0049C140.463 33.9053 140.871 33.5664 141.33 32.9884C141.788 32.3904 142.117 31.7924 142.316 31.1945C142.396 30.9553 142.436 30.756 142.436 30.5965C142.436 30.3374 142.326 30.2078 142.107 30.2078C141.928 30.2078 141.689 30.2875 141.39 30.447C140.473 30.9453 139.675 31.8323 138.998 33.108C138.34 34.3637 138.001 35.6792 137.981 37.0546C137.981 38.2106 138.23 39.0478 138.729 39.566C139.227 40.0643 139.855 40.3135 140.612 40.3135C141.429 40.3135 142.326 40.0743 143.303 39.5959C144.041 39.2371 144.649 38.8983 145.127 38.5794C145.605 38.2405 146.064 37.8419 146.502 37.3834C146.722 37.1443 146.891 36.9649 147.011 36.8453C147.15 36.7257 147.26 36.6459 147.339 36.6061C147.439 36.5662 147.529 36.5463 147.609 36.5463C147.768 36.5463 147.917 36.616 148.057 36.7556C148.197 36.8752 148.266 37.0147 148.266 37.1742C148.266 37.7323 147.708 38.4498 146.592 39.3268C145.476 40.2039 144.22 40.9115 142.825 41.4496C142.107 41.7087 141.42 41.8383 140.762 41.8383ZM151.974 38.6093L152.482 37.802C153.259 36.5861 153.648 35.5098 153.648 34.573C153.648 34.3737 153.618 34.1943 153.558 34.0348C153.518 33.8754 153.469 33.7657 153.409 33.7059C153.349 33.6461 153.269 33.6063 153.17 33.5863C152.99 33.5863 152.761 33.676 152.482 33.8554C152.223 34.0348 152.014 34.264 151.854 34.5431L151.645 34.872C151.286 35.3304 151.107 35.8287 151.107 36.3669C151.107 37.1841 151.396 37.9316 151.974 38.6093ZM148.595 41.1207C148.854 41.1207 149.183 41.0211 149.582 40.8218C149.98 40.6224 150.399 40.3334 150.838 39.9547L151.017 39.7753L150.628 39.3866C149.97 38.6093 149.642 37.6725 149.642 36.5762C149.642 36.1576 149.691 35.7191 149.791 35.2607H149.761C149.223 35.7988 148.745 36.5861 148.326 37.6226C147.967 38.5196 147.788 39.3069 147.788 39.9846C147.788 40.742 148.057 41.1207 148.595 41.1207ZM148.565 42.6456C148.306 42.6456 148.057 42.5957 147.818 42.4961C146.801 42.0177 146.293 41.1207 146.293 39.8052C146.293 38.7887 146.552 37.7422 147.07 36.6659C147.828 35.1311 148.695 34.1345 149.672 33.676C149.99 33.5365 150.25 33.4667 150.449 33.4667C150.648 33.4667 150.877 33.3173 151.137 33.0183C151.814 32.3804 152.492 32.0615 153.17 32.0615C153.548 32.0615 153.887 32.1612 154.186 32.3605C154.804 32.8588 155.113 33.5863 155.113 34.5431C155.113 35.3005 154.973 36.028 154.694 36.7257C154.435 37.4034 154.037 38.1608 153.498 38.998C154.395 38.998 155.302 38.7887 156.219 38.3701C156.877 38.0711 157.505 37.6426 158.103 37.0845L158.432 36.7855C158.611 36.626 158.791 36.5463 158.97 36.5463C159.129 36.5463 159.259 36.616 159.359 36.7556C159.478 36.8752 159.538 37.0047 159.538 37.1443C159.538 37.3635 159.428 37.5927 159.209 37.8319C158.212 38.9282 157.086 39.6757 155.831 40.0743C154.854 40.3733 153.967 40.5228 153.17 40.5228C152.871 40.5228 152.602 40.5028 152.362 40.463L151.794 41.031C151.077 41.7087 150.319 42.1871 149.522 42.4662C149.163 42.5858 148.844 42.6456 148.565 42.6456Z" fill="white"/>
</svg>
